<svg enable-background="new 0 0 55.2 38.4" viewBox="0 0 55.2 38.4" xmlns="http://www.w3.org/2000/svg"><path d="m3.03 0h49.13c1.67 0 3.03 1.36 3.03 3.03v32.33c0 1.67-1.36 3.03-3.03 3.03h-49.13c-1.67.01-3.03-1.35-3.03-3.02v-32.34c0-1.67 1.36-3.03 3.03-3.03z" fill="#b22234"/><path d="m.02 2.73h55.17c.01.1.02.2.02.31v2.94h-55.21v-2.95c0-.1.01-.2.02-.3zm55.18 5.94v3.24h-55.2v-3.24zm0 5.94v3.24h-55.2v-3.24zm0 5.94v3.24h-55.2v-3.24zm0 5.94v3.24h-55.2v-3.24zm0 5.94v2.93c0 .1-.01.21-.02.31h-55.16c-.01-.09-.02-.2-.02-.3v-2.93h55.2z" fill="#fff"/><path d="m20.8 0v20.68h-20.8v-17.65c0-1.67 1.36-3.03 3.03-3.03z" fill="#3c3b6e"/><g fill="#fff"><path d="m1.23 2.86.69 2.15-1.82-1.33h2.26l-1.83 1.33z"/><path d="m1.23 7.02.69 2.15-1.82-1.33h2.26l-1.83 1.33z"/><path d="m1.23 11.18.69 2.15-1.82-1.33h2.26l-1.83 1.33z"/><path d="m1.23 15.34.69 2.15-1.82-1.33h2.26l-1.83 1.33z"/><path d="m3.67.78.7 2.15-1.83-1.33h2.27l-1.84 1.33z"/><path d="m3.67 4.94.7 2.15-1.83-1.33h2.27l-1.84 1.33z"/><path d="m3.67 9.1.7 2.15-1.83-1.33h2.27l-1.84 1.33z"/><path d="m3.67 13.26.7 2.15-1.83-1.33h2.27l-1.84 1.33z"/><path d="m3.67 17.42.7 2.15-1.83-1.33h2.27l-1.84 1.33z"/><path d="m6.12 2.86.7 2.15-1.83-1.33h2.26l-1.83 1.33z"/><path d="m6.12 7.02.7 2.15-1.83-1.33h2.26l-1.83 1.33z"/><path d="m6.12 11.18.7 2.15-1.83-1.33h2.26l-1.83 1.33z"/><path d="m6.12 15.34.7 2.15-1.83-1.33h2.26l-1.83 1.33z"/><path d="m8.57.78.69 2.15-1.82-1.33h2.26l-1.83 1.33z"/><path d="m8.57 4.94.69 2.15-1.82-1.33h2.26l-1.83 1.33z"/><path d="m8.57 9.1.69 2.15-1.82-1.33h2.26l-1.83 1.33z"/><path d="m8.57 13.26.69 2.15-1.82-1.33h2.26l-1.83 1.33z"/><path d="m8.57 17.42.69 2.15-1.82-1.33h2.26l-1.83 1.33z"/><path d="m11.01 2.86.7 2.15-1.83-1.33h2.26l-1.83 1.33z"/><path d="m11.01 7.02.7 2.15-1.83-1.33h2.26l-1.83 1.33z"/><path d="m11.01 11.18.7 2.15-1.83-1.33h2.26l-1.83 1.33z"/><path d="m11.01 15.34.7 2.15-1.83-1.33h2.26l-1.83 1.33z"/><path d="m13.46.78.7 2.15-1.83-1.33h2.26l-1.83 1.33z"/><path d="m13.46 4.94.7 2.15-1.83-1.33h2.26l-1.83 1.33z"/><path d="m13.46 9.1.7 2.15-1.83-1.33h2.26l-1.83 1.33z"/><path d="m13.46 13.26.7 2.15-1.83-1.33h2.26l-1.83 1.33z"/><path d="m13.46 17.42.7 2.15-1.83-1.33h2.26l-1.83 1.33z"/><path d="m15.9 2.86.7 2.15-1.83-1.33h2.26l-1.82 1.33z"/><path d="m15.9 7.02.7 2.15-1.83-1.33h2.26l-1.82 1.33z"/><path d="m15.9 11.18.7 2.15-1.83-1.33h2.26l-1.82 1.33z"/><path d="m15.9 15.34.7 2.15-1.83-1.33h2.26l-1.82 1.33z"/><path d="m18.35.78.7 2.15-1.83-1.33h2.26l-1.83 1.33z"/><path d="m18.35 4.94.7 2.15-1.83-1.33h2.26l-1.83 1.33z"/><path d="m18.35 9.1.7 2.15-1.83-1.33h2.26l-1.83 1.33z"/><path d="m18.35 13.26.7 2.15-1.83-1.33h2.26l-1.83 1.33z"/><path d="m18.35 17.42.7 2.15-1.83-1.33h2.26l-1.83 1.33z"/></g></svg>