<svg enable-background="new 0 0 55.32 38.52" viewBox="0 0 55.32 38.52" xmlns="http://www.w3.org/2000/svg"><path d="m3.09.06h49.13c1.67 0 3.03 1.36 3.03 3.03v16.17h-55.19v-16.17c0-1.67 1.36-3.03 3.03-3.03z" fill="#fff"/><path d="m.06 19.26h55.2v16.17c0 1.67-1.36 3.03-3.03 3.03h-49.14c-1.67 0-3.03-1.37-3.03-3.03v-16.17z" fill="#d52b1e"/><path d="m.06 12.86h55.2v12.8h-55.2z" fill="#0039a6"/><path d="m3.09.06h49.13c1.67 0 3.03 1.36 3.03 3.03v32.33c0 1.67-1.36 3.03-3.03 3.03h-49.13c-1.67 0-3.03-1.37-3.03-3.03v-32.33c0-1.67 1.36-3.03 3.03-3.03z" fill="none" stroke="#ccc" stroke-miterlimit="2.6131" stroke-width=".1199"/></svg>